<mxfile host="app.diagrams.net" modified="2023-10-24T02:13:26.975Z" agent="Mozilla/5.0 (Macintosh; Intel Mac OS X 10_15_7) AppleWebKit/537.36 (KHTML, like Gecko) Chrome/118.0.0.0 Safari/537.36" etag="owVr0pzp0vWA7p5yfwtN" version="22.0.6" type="device">
  <diagram name="第 1 页" id="Q_RMDecdKkPYmLVFq2oc">
    <mxGraphModel dx="954" dy="541" grid="1" gridSize="10" guides="1" tooltips="1" connect="1" arrows="1" fold="1" page="1" pageScale="1" pageWidth="827" pageHeight="1169" math="0" shadow="0">
      <root>
        <mxCell id="0" />
        <mxCell id="1" parent="0" />
        <mxCell id="GeBEahTKlZRlFO_gMOTx-1" value="" style="dashed=0;outlineConnect=0;html=1;align=center;labelPosition=center;verticalLabelPosition=bottom;verticalAlign=top;shape=mxgraph.weblogos.myspace;fillColor=#003399;strokeColor=none" parent="1" vertex="1">
          <mxGeometry x="350" y="160" width="63" height="70.2" as="geometry" />
        </mxCell>
        <mxCell id="GeBEahTKlZRlFO_gMOTx-2" value="" style="shape=step;perimeter=stepPerimeter;whiteSpace=wrap;html=1;fixedSize=1;rotation=45;" parent="1" vertex="1">
          <mxGeometry x="414" y="320" width="120" height="30" as="geometry" />
        </mxCell>
        <mxCell id="GeBEahTKlZRlFO_gMOTx-3" value="&lt;font style=&quot;font-size: 16px;&quot;&gt;安全管理员&lt;br&gt;&lt;br&gt;可创建&lt;br&gt;不可审&lt;br&gt;不可管&lt;/font&gt;" style="text;html=1;strokeColor=none;fillColor=none;align=center;verticalAlign=middle;whiteSpace=wrap;rounded=0;" parent="1" vertex="1">
          <mxGeometry x="330" y="270" width="103" height="30" as="geometry" />
        </mxCell>
        <mxCell id="GeBEahTKlZRlFO_gMOTx-5" value="" style="dashed=0;outlineConnect=0;html=1;align=center;labelPosition=center;verticalLabelPosition=bottom;verticalAlign=top;shape=mxgraph.weblogos.myspace;fillColor=#003399;strokeColor=none" parent="1" vertex="1">
          <mxGeometry x="520" y="379.8" width="63" height="70.2" as="geometry" />
        </mxCell>
        <mxCell id="GeBEahTKlZRlFO_gMOTx-6" value="&lt;font style=&quot;font-size: 16px;&quot;&gt;审计管理员&lt;br&gt;&lt;br&gt;不可创建&lt;br&gt;可审&lt;br&gt;不可管&lt;/font&gt;" style="text;html=1;strokeColor=none;fillColor=none;align=center;verticalAlign=middle;whiteSpace=wrap;rounded=0;" parent="1" vertex="1">
          <mxGeometry x="590" y="420.2" width="103" height="30" as="geometry" />
        </mxCell>
        <mxCell id="GeBEahTKlZRlFO_gMOTx-7" value="" style="dashed=0;outlineConnect=0;html=1;align=center;labelPosition=center;verticalLabelPosition=bottom;verticalAlign=top;shape=mxgraph.weblogos.myspace;fillColor=#003399;strokeColor=none" parent="1" vertex="1">
          <mxGeometry x="190" y="369.8" width="63" height="70.2" as="geometry" />
        </mxCell>
        <mxCell id="GeBEahTKlZRlFO_gMOTx-8" value="&lt;font style=&quot;font-size: 16px;&quot;&gt;系统管理员&lt;br&gt;&lt;br&gt;不可创建&lt;br&gt;不可审&lt;br&gt;可管理&lt;/font&gt;" style="text;html=1;strokeColor=none;fillColor=none;align=center;verticalAlign=middle;whiteSpace=wrap;rounded=0;" parent="1" vertex="1">
          <mxGeometry x="97" y="420" width="103" height="30" as="geometry" />
        </mxCell>
        <mxCell id="GeBEahTKlZRlFO_gMOTx-9" value="&lt;font style=&quot;font-size: 14px;&quot;&gt;审计日志&lt;br&gt;&lt;br&gt;&lt;br&gt;&lt;/font&gt;" style="rounded=1;whiteSpace=wrap;html=1;" parent="1" vertex="1">
          <mxGeometry x="354" y="420" width="60" height="120" as="geometry" />
        </mxCell>
        <mxCell id="GeBEahTKlZRlFO_gMOTx-10" value="" style="shape=step;perimeter=stepPerimeter;whiteSpace=wrap;html=1;fixedSize=1;rotation=-225;" parent="1" vertex="1">
          <mxGeometry x="240" y="320" width="120" height="30" as="geometry" />
        </mxCell>
        <mxCell id="GeBEahTKlZRlFO_gMOTx-13" value="" style="shape=step;perimeter=stepPerimeter;whiteSpace=wrap;html=1;fixedSize=1;rotation=0;" parent="1" vertex="1">
          <mxGeometry x="230" y="450.2" width="100" height="25" as="geometry" />
        </mxCell>
        <mxCell id="GeBEahTKlZRlFO_gMOTx-14" value="" style="shape=step;perimeter=stepPerimeter;whiteSpace=wrap;html=1;fixedSize=1;rotation=-180;" parent="1" vertex="1">
          <mxGeometry x="444" y="450.2" width="104" height="25" as="geometry" />
        </mxCell>
      </root>
    </mxGraphModel>
  </diagram>
</mxfile>
